<?xml version="1.0" encoding="UTF-8"?>
<svg version="1.1" xmlns="http://www.w3.org/2000/svg" width="512" height="512">
<path d="M0 0 C0.98201543 -0.00424107 0.98201543 -0.00424107 1.98386955 -0.00856781 C5.46215066 -0.02347613 8.94039135 -0.03275307 12.41870117 -0.03710938 C15.23524204 -0.0414549 18.05146981 -0.05520424 20.86791992 -0.078125 C38.82306273 -0.22136523 56.32420809 0.5491037 74.12109375 3.203125 C75.45753796 3.38311781 76.79403684 3.56270559 78.13061523 3.74169922 C81.12109375 4.203125 81.12109375 4.203125 83.87890625 5.1328125 C87.54397646 6.34272724 91.17530209 7.03366008 94.96289062 7.74951172 C128.48225527 14.14365968 160.57604673 27.53992571 187.12109375 49.203125 C188.06082031 49.95722656 189.00054687 50.71132813 189.96875 51.48828125 C202.89665061 62.0281737 215.12737611 73.82758533 225.12109375 87.203125 C225.87003906 88.11191406 226.61898438 89.02070312 227.390625 89.95703125 C249.1829869 116.82855781 260.19699898 149.74352114 267.41943359 183.07666016 C267.86751537 185.07322774 268.3442656 187.06371941 268.85791016 189.04443359 C274.07266252 209.5273303 274.61488505 230.39810979 274.51220703 251.41137695 C274.49513259 254.93155711 274.50527879 258.45105555 274.52253342 261.97121239 C274.61620085 284.54889743 274.53080241 308.63755501 267.12109375 330.203125 C266.41848173 333.02899089 265.76916159 335.86512994 265.1184082 338.70336914 C257.78416381 370.59690953 245.77226613 401.19976746 224.12109375 426.203125 C223.16783203 427.42902344 223.16783203 427.42902344 222.1953125 428.6796875 C211.9281856 441.8774312 199.53966372 454.21721246 186.12109375 464.203125 C185.60160156 464.59371094 185.08210938 464.98429687 184.546875 465.38671875 C155.33801315 487.24230069 122.84043486 499.31511297 87.25390625 506.5625 C85.57739117 506.90532852 83.90179054 507.25476951 82.23614502 507.64701843 C62.65546407 512.23522661 42.61303195 512.71959918 22.59423828 512.64916992 C19.87256994 512.64001669 17.15176296 512.64685057 14.43017578 512.66967773 C-7.41226273 512.85166621 -30.88910451 512.86796763 -51.87890625 506.203125 C-53.49778768 505.84469529 -55.12143906 505.50682202 -56.75 505.1953125 C-91.13266204 498.34611476 -123.48957714 485.33931391 -150.87890625 463.203125 C-151.46591309 462.73181152 -152.05291992 462.26049805 -152.65771484 461.77490234 C-166.27386351 450.74463258 -179.48758682 438.34746794 -189.87890625 424.203125 C-190.71974669 423.12374585 -191.56232993 422.04572304 -192.40625 420.96875 C-204.30699444 405.55634513 -212.97430934 388.35835953 -219.87890625 370.203125 C-220.15041504 369.49575195 -220.42192383 368.78837891 -220.70166016 368.05957031 C-224.8442249 357.06219955 -227.46725075 345.8196234 -229.87548828 334.328125 C-230.10864746 333.21824219 -230.34180664 332.10835938 -230.58203125 330.96484375 C-230.88608887 329.4792395 -230.88608887 329.4792395 -231.19628906 327.96362305 C-231.81303933 325.19550948 -231.81303933 325.19550948 -232.90893555 322.63647461 C-233.87684756 320.20828961 -234.33662374 318.09005299 -234.6953125 315.5078125 C-234.81970703 314.62609375 -234.94410156 313.744375 -235.07226562 312.8359375 C-235.19408203 311.92585938 -235.31589844 311.01578125 -235.44140625 310.078125 C-235.56708984 309.19125 -235.69277344 308.304375 -235.82226562 307.390625 C-237.37733408 296.15505187 -238.04464903 285.0984797 -238.08203125 273.75390625 C-238.08627232 272.73829652 -238.08627232 272.73829652 -238.09059906 271.70216942 C-238.10549265 268.10832728 -238.11478013 264.51452416 -238.11914062 260.9206543 C-238.12349473 258.00711331 -238.13728046 255.09387355 -238.16015625 252.18041992 C-238.33919976 228.90286693 -237.10825929 206.3259987 -231.4765625 183.63183594 C-230.80753753 180.91310211 -230.17161734 178.18747207 -229.53515625 175.4609375 C-221.77038771 142.68776895 -209.1577851 110.90392315 -186.87890625 85.203125 C-185.97588622 84.11883206 -185.07494471 83.03280568 -184.17578125 81.9453125 C-172.72817896 68.19380248 -160.3470156 55.76366582 -145.87890625 45.203125 C-144.821875 44.42453125 -143.76484375 43.6459375 -142.67578125 42.84375 C-102.27831505 13.988417 -49.26572469 0.16776589 0 0 Z M-92.87890625 62.203125 C-93.62205078 62.56696289 -94.36519531 62.93080078 -95.13085938 63.30566406 C-108.73020793 70.05840357 -120.75670409 77.79726807 -131.87890625 88.203125 C-133.24900641 89.39627495 -134.623727 90.5841486 -136.00390625 91.765625 C-142.89818486 97.80329985 -148.94613403 104.27689075 -154.6640625 111.44140625 C-156.03606153 113.15217048 -157.43511634 114.8420591 -158.875 116.49609375 C-187.90088162 150.42775818 -195.61704733 202.17373591 -196.87890625 245.203125 C-196.92015625 246.50765625 -196.96140625 247.8121875 -197.00390625 249.15625 C-198.00230306 298.4770523 -191.23403877 359.95620012 -156.87890625 398.203125 C-155.76515625 399.45996094 -155.76515625 399.45996094 -154.62890625 400.7421875 C-153.10182373 402.44983721 -151.56549801 404.14927126 -150.01953125 405.83984375 C-148.15037718 407.90341713 -146.35567263 410.00827113 -144.56640625 412.140625 C-140.27327816 417.07273029 -135.40106705 421.41326308 -130.51489258 425.74609375 C-129.34871279 426.78470903 -128.19340526 427.83558616 -127.0456543 428.89453125 C-122.21591107 433.27570825 -117.18147174 436.77602836 -111.56640625 440.078125 C-110.69540283 440.59205811 -109.82439941 441.10599121 -108.92700195 441.63549805 C-69.24298395 464.69643728 -20.52969517 473.21172845 25.12109375 471.203125 C26.23629395 471.15526855 27.35149414 471.10741211 28.50048828 471.05810547 C74.94777906 468.88059791 126.69433005 460.88139986 163.12109375 429.203125 C163.12109375 428.543125 163.12109375 427.883125 163.12109375 427.203125 C163.65347656 426.9865625 164.18585938 426.77 164.734375 426.546875 C167.99909817 424.70879846 170.59189696 422.24953205 173.30859375 419.703125 C173.88448242 419.16631104 174.46037109 418.62949707 175.05371094 418.07641602 C180.04475437 413.37139027 184.67612074 408.42863856 189.12109375 403.203125 C189.87003906 402.34203125 190.61898438 401.4809375 191.390625 400.59375 C230.03864484 355.03254092 236.47249414 287.16277482 232.10546875 229.84155273 C228.26674283 184.25983927 217.18514313 140.10846793 185.5234375 105.828125 C183.5194063 103.63835433 181.5931297 101.41191956 179.68359375 99.140625 C175.28693816 94.08131557 170.33033847 89.4188985 165.12109375 85.203125 C164.46109375 85.203125 163.80109375 85.203125 163.12109375 85.203125 C162.92 84.63078125 162.71890625 84.0584375 162.51171875 83.46875 C160.5961037 80.34780413 157.92687613 78.81983725 154.87109375 76.953125 C153.93608032 76.36942139 153.93608032 76.36942139 152.98217773 75.77392578 C151.03699218 74.56903009 149.0815214 73.38303487 147.12109375 72.203125 C146.53150879 71.84637695 145.94192383 71.48962891 145.33447266 71.12207031 C114.51316618 52.61009399 80.60204843 45.63759411 45.12109375 42.203125 C44.38133301 42.13109863 43.64157227 42.05907227 42.87939453 41.98486328 C-1.47910944 37.91101286 -52.52412419 42.38961839 -92.87890625 62.203125 Z " fill="#343A56" transform="translate(237.87890625,-0.203125)"/>
<path d="M0 0 C0.98201543 -0.00424107 0.98201543 -0.00424107 1.98386955 -0.00856781 C5.46215066 -0.02347613 8.94039135 -0.03275307 12.41870117 -0.03710938 C15.23524204 -0.0414549 18.05146981 -0.05520424 20.86791992 -0.078125 C38.82309812 -0.22136551 56.32415408 0.54932711 74.12109375 3.203125 C75.45428446 3.38245458 76.78752838 3.56138952 78.12084961 3.73974609 C81.29903706 4.23060782 84.07665077 5.17803407 87.12109375 6.203125 C89.89838185 6.82749796 92.69349472 7.33146188 95.49609375 7.828125 C96.23214844 7.9621875 96.96820313 8.09625 97.7265625 8.234375 C99.52403547 8.56118827 101.32247008 8.88270511 103.12109375 9.203125 C103.12109375 9.533125 103.12109375 9.863125 103.12109375 10.203125 C102.34765625 10.20570312 101.57421875 10.20828125 100.77734375 10.2109375 C93.20266161 10.4921757 88.39768403 11.60943194 83.12109375 17.203125 C79.13036573 21.7493805 78.37975974 26.45003273 78.6015625 32.4140625 C79.49136173 37.1908794 81.86110114 40.66828523 85.12109375 44.203125 C87.80764083 46.10350549 87.80764083 46.10350549 90.12109375 47.203125 C90.12109375 47.863125 90.12109375 48.523125 90.12109375 49.203125 C85.59168703 48.6769544 81.09937494 48.05182599 76.6015625 47.30078125 C21.75472734 38.20128235 -41.89066554 38.16877237 -92.87890625 63.203125 C-93.62205078 63.56696289 -94.36519531 63.93080078 -95.13085938 64.30566406 C-108.72993894 71.05827001 -120.75746188 78.79676504 -131.87890625 89.203125 C-133.26971269 90.41724097 -134.66524344 91.62597571 -136.06640625 92.828125 C-142.58376145 98.53732815 -148.21226989 104.63545455 -153.62890625 111.40625 C-155.01498721 113.12922563 -156.42677246 114.8323151 -157.87890625 116.5 C-172.67491152 133.80178036 -181.09260573 156.47667932 -186.87890625 178.203125 C-187.53890625 178.203125 -188.19890625 178.203125 -188.87890625 178.203125 C-189.00265625 177.41808594 -189.12640625 176.63304687 -189.25390625 175.82421875 C-190.62438958 168.84331926 -192.22524081 164.8594959 -197.84375 160.41015625 C-202.72336446 157.51610468 -208.3624243 157.60585177 -213.87890625 158.203125 C-219.33370496 159.9426102 -223.12041547 162.97482287 -226.87890625 167.203125 C-221.5309426 137.49437193 -206.59681666 107.94960335 -186.87890625 85.203125 C-185.97588622 84.11883206 -185.07494471 83.03280568 -184.17578125 81.9453125 C-172.72817896 68.19380248 -160.3470156 55.76366582 -145.87890625 45.203125 C-144.821875 44.42453125 -143.76484375 43.6459375 -142.67578125 42.84375 C-102.27831505 13.988417 -49.26572469 0.16776589 0 0 Z " fill="#0094FE" transform="translate(237.87890625,-0.203125)"/>
<path d="M0 0 C5.0067172 4.89545682 6.86187605 9.3606602 7.06640625 16.23046875 C6.423005 27.5582302 -2.37670931 34.82359259 -9.94848633 42.28466797 C-11.70261043 44.01490466 -13.4427246 45.75839879 -15.18164062 47.50390625 C-16.29087238 48.6075697 -17.40087063 49.71046345 -18.51171875 50.8125 C-19.03255539 51.33424805 -19.55339203 51.85599609 -20.0900116 52.39355469 C-23.76887503 56 -23.76887503 56 -26 56 C-26.20616943 56.52779053 -26.41233887 57.05558105 -26.62475586 57.59936523 C-28.57825337 61.00940269 -31.26464528 63.6303261 -34.00390625 66.41015625 C-34.60122055 67.0188707 -35.19853485 67.62758514 -35.81394958 68.25474548 C-37.07959029 69.53925037 -38.34814249 70.82089212 -39.61938477 72.09985352 C-41.54561084 74.04544108 -43.44941718 76.01130062 -45.35351562 77.97851562 C-46.58981444 79.22788138 -47.82740514 80.47597033 -49.06640625 81.72265625 C-49.62614639 82.30709 -50.18588654 82.89152374 -50.7625885 83.4936676 C-55.92339779 88.5985072 -61.38657752 90.61963974 -68.5625 91.375 C-75.94455842 90.56968454 -79.84918555 88.33218115 -85 83 C-86.2905391 81.76936293 -87.58800503 80.54596734 -88.890625 79.328125 C-89.59614502 78.66796387 -90.30166504 78.00780273 -91.02856445 77.32763672 C-91.76163818 76.6420166 -92.49471191 75.95639648 -93.25 75.25 C-115.52591129 54.31601107 -115.52591129 54.31601107 -116.23828125 46.328125 C-116.40185591 39.54408137 -116.21742131 35.40695039 -112 30 C-107.17554189 25.07265061 -102.8013048 22.06302105 -95.8125 21.5 C-84.36127876 21.87792809 -76.29463597 32.25414943 -69 40 C-63.33650825 35.30050684 -58.16023364 30.24228683 -53 25 C-52.22986572 24.23131592 -51.45973145 23.46263184 -50.66625977 22.6706543 C-48.13711897 20.13734496 -45.63065277 17.58376657 -43.12890625 15.0234375 C-41.74647408 13.62031318 -40.36401722 12.21721233 -38.98022461 10.81542969 C-38.03416196 9.8542157 -37.0908004 8.8903358 -36.15014648 7.92382812 C-34.77534719 6.51240262 -33.38972178 5.11154821 -32.00390625 3.7109375 C-31.18736572 2.87868652 -30.3708252 2.04643555 -29.52954102 1.18896484 C-20.59690472 -6.54098564 -9.47120972 -6.8712698 0 0 Z " fill="#0095FF" transform="translate(229,281)"/>
<path d="M0 0 C4.85630675 4.08136418 7.44322359 8.66969425 8 15 C7.94628593 29.26108611 -4.57759224 38.71549041 -13.90429688 48.02612305 C-17.53658719 51.61749587 -21.24855491 55.05726465 -25.140625 58.3671875 C-30.21422232 62.82257338 -34.92706233 67.68196369 -39.3125 72.8125 C-55.17863087 91.07143483 -55.17863087 91.07143483 -67.5625 92.375 C-76.51441722 91.39842721 -80.49949622 87.9426046 -86.5625 81.546875 C-88.63066698 79.38590565 -90.72071445 77.43004018 -93 75.5 C-114.47324726 57.01999327 -114.47324726 57.01999327 -115.203125 47.29296875 C-115.3217982 39.43086947 -114.31284949 35.27653678 -109.75 28.8125 C-105.01101402 23.96580979 -101.02083399 22.83938265 -94.4375 22.625 C-87.8685498 22.56779579 -83.75495196 25.10370864 -79.1328125 29.57421875 C-77.78909904 30.9376927 -76.4532984 32.30900428 -75.125 33.6875 C-74.09246094 34.7403418 -74.09246094 34.7403418 -73.0390625 35.81445312 C-71.35231682 37.53633934 -69.67438879 39.26612177 -68 41 C-62.65283193 36.54402661 -57.71657641 31.82211368 -52.8359375 26.86328125 C-51.28659191 25.30129979 -49.73710867 23.73945484 -48.1875 22.17773438 C-45.77181919 19.73717757 -43.35777804 17.29504087 -40.94628906 14.8503418 C-38.60140322 12.47525307 -36.25033645 10.10642263 -33.8984375 7.73828125 C-33.18062103 7.00700516 -32.46280457 6.27572906 -31.72323608 5.52229309 C-22.33118927 -3.9165751 -12.11691383 -7.46842507 0 0 Z " fill="#0095FF" transform="translate(228,144)"/>
<path d="M0 0 C1.00239716 -0.00511093 2.00479431 -0.01022186 3.03756714 -0.01548767 C6.34297702 -0.02935922 9.6481778 -0.02842863 12.95361328 -0.02612305 C15.25757932 -0.03001145 17.56154464 -0.03434642 19.86550903 -0.03910828 C24.69226404 -0.04656536 29.5189459 -0.04628299 34.34570312 -0.04101562 C40.52158506 -0.03522326 46.69716687 -0.05214911 52.87299919 -0.0753603 C57.63088727 -0.09011479 62.38870336 -0.09096696 67.14661026 -0.08785057 C69.42311319 -0.08836297 71.69962024 -0.09358534 73.97610092 -0.10366249 C77.16395131 -0.11604185 80.35122093 -0.10922571 83.5390625 -0.09765625 C84.47335083 -0.10529999 85.40763916 -0.11294373 86.37023926 -0.12081909 C92.83733924 -0.06911822 98.72748354 0.69097359 103.92236328 4.9230957 C104.59138672 5.77774414 104.59138672 5.77774414 105.27392578 6.6496582 C105.96615234 7.49657227 105.96615234 7.49657227 106.67236328 8.3605957 C110.33537673 14.07676319 110.75783013 19.6513546 109.89892578 26.2746582 C108.27227516 31.27329272 106.17995039 35.7749711 101.77392578 38.8371582 C98.15547367 40.64638426 95.47353991 41.39997792 91.47843933 41.4151001 C90.57425766 41.42081024 89.67007599 41.42652039 88.73849487 41.43240356 C87.25399338 41.43408035 87.25399338 41.43408035 85.73950195 41.43579102 C84.17322304 41.44323837 84.17322304 41.44323837 82.57530212 41.45083618 C79.1141596 41.46546466 75.65306291 41.47226099 72.19189453 41.4777832 C69.7891693 41.48353411 67.38644408 41.48929185 64.98371887 41.49505615 C59.94235012 41.50556811 54.90099732 41.5114095 49.85961914 41.51489258 C43.39986442 41.52037753 36.94032045 41.544405 30.48063183 41.57286453 C25.51609176 41.59148851 20.55160247 41.59669639 15.58703041 41.59822845 C13.20559855 41.60125606 10.82416761 41.6092882 8.44277 41.62241364 C5.11052799 41.6394686 1.77880116 41.63759496 -1.5534668 41.63110352 C-2.53706177 41.6403183 -3.52065674 41.64953308 -4.53405762 41.6590271 C-9.81571454 41.62679718 -13.55199535 41.26585609 -18.10107422 38.2746582 C-23.24666397 33.00940358 -26.19842469 27.74107959 -26.53857422 20.3371582 C-26.33550584 14.52763668 -24.62455678 10.06041283 -20.71044922 5.73950195 C-14.48456429 0.11982161 -7.92778204 -0.0209311 0 0 Z " fill="#0094FF" transform="translate(289.10107421875,180.725341796875)"/>
<path d="M0 0 C0.97299042 -0.0049649 1.94598083 -0.00992981 2.94845581 -0.01504517 C6.16185213 -0.02962973 9.37519909 -0.03646243 12.58862305 -0.04199219 C14.8267568 -0.04774643 17.06489055 -0.05350413 19.30302429 -0.05926514 C23.99449899 -0.0697644 28.68595661 -0.07561419 33.37744141 -0.07910156 C39.37957939 -0.08458575 45.38149047 -0.10861691 51.38355732 -0.13707352 C56.00675612 -0.15572531 60.62990053 -0.16090685 65.25313377 -0.16243744 C67.46544829 -0.16545845 69.67776197 -0.17346828 71.89003944 -0.18662262 C74.9893672 -0.2037369 78.08814375 -0.20178963 81.1875 -0.1953125 C82.54921074 -0.20913467 82.54921074 -0.20913467 83.93843079 -0.22323608 C90.83923996 -0.17821311 96.0766362 1.19062029 102.0378418 4.84863281 C106.77198751 9.71428257 108.54163236 14.36952523 108.8503418 21.16113281 C108.60407531 27.89524741 106.42954926 32.01942535 101.7253418 36.72363281 C97.88067832 40.10693667 94.89916022 41.28252842 89.86735535 41.30157471 C88.96317368 41.30728485 88.058992 41.312995 87.12741089 41.31887817 C85.64290939 41.32055496 85.64290939 41.32055496 84.12841797 41.32226562 C82.56213905 41.32971298 82.56213905 41.32971298 80.96421814 41.33731079 C77.50307562 41.35193927 74.04197893 41.3587356 70.58081055 41.36425781 C68.17808531 41.37000872 65.77536009 41.37576646 63.37263489 41.38153076 C58.33126613 41.39204272 53.28991333 41.39788411 48.24853516 41.40136719 C41.78878043 41.40685214 35.32923646 41.43087961 28.86954784 41.45933914 C23.90500777 41.47796312 18.94051848 41.483171 13.97594643 41.48470306 C11.59451457 41.48773067 9.21308363 41.49576281 6.83168602 41.50888824 C3.499444 41.52594321 0.16771718 41.52406957 -3.16455078 41.51757812 C-4.14814575 41.52679291 -5.13174072 41.53600769 -6.1451416 41.54550171 C-12.30314689 41.5079241 -16.78947896 40.79654016 -21.5402832 36.51269531 C-22.00950195 35.94292969 -22.4787207 35.37316406 -22.9621582 34.78613281 C-23.44168945 34.22152344 -23.9212207 33.65691406 -24.4152832 33.07519531 C-28.22029169 27.45936953 -28.56945739 21.74880025 -27.7121582 15.16113281 C-25.66786537 8.98071261 -22.35131927 5.27419408 -16.7746582 2.03613281 C-11.36475774 -0.25897648 -5.77105204 0.00705916 0 0 Z " fill="#0094FF" transform="translate(290.712158203125,316.8388671875)"/>
<path d="M0 0 C5.38683123 4.24069693 9.46988868 8.91880952 13.75 14.26171875 C19.69426148 21.49596753 26.60241886 27.30022437 34 33 C33.505 33.99 33.505 33.99 33 35 C30.13302508 33.71480435 28.02392288 32.42870746 26 30 C26 29.34 26 28.68 26 28 C25.42636719 27.74089844 24.85273437 27.48179687 24.26171875 27.21484375 C21.81027784 25.89809397 19.90765178 24.39035287 17.8125 22.5625 C16.77029297 21.66724609 16.77029297 21.66724609 15.70703125 20.75390625 C14 19 14 19 13 16 C12.01 15.67 11.02 15.34 10 15 C8.99260254 13.33779419 7.99477045 11.66979326 7 10 C5.1849595 7.8804225 3.318957 5.81949175 1.42578125 3.76953125 C0 2 0 2 0 0 Z " fill="#245487" transform="translate(78,395)"/>
<path d="M0 0 C0 3.99543137 -1.34529615 4.76717291 -4.0625 7.625 C-7.03256308 10.80721045 -9.77287338 13.96715307 -12.3125 17.5 C-16.67201105 23.27480255 -22.34941121 27.55561243 -28 32 C-28 29 -28 29 -25.61328125 26.609375 C-24.51762968 25.65095553 -23.41698765 24.69822322 -22.3125 23.75 C-15.81031128 17.98577031 -10.17815644 11.6883015 -4.58203125 5.0546875 C-2 2 -2 2 0 0 Z " fill="#21598F" transform="translate(433,395)"/>
<path d="M0 0 C1.33855056 0.78281305 2.67073644 1.57651877 4 2.375 C5.11375 3.03628906 5.11375 3.03628906 6.25 3.7109375 C6.8275 4.13632813 7.405 4.56171875 8 5 C8 5.66 8 6.32 8 7 C8.556875 7.20625 9.11375 7.4125 9.6875 7.625 C12.97012371 9.57683032 14.70673246 11.94230994 17 15 C17 15.66 17 16.32 17 17 C17.66 17 18.32 17 19 17 C20.43581474 18.61457079 21.80144783 20.29219075 23.125 22 C23.84945313 22.928125 24.57390625 23.85625 25.3203125 24.8125 C25.87460937 25.534375 26.42890625 26.25625 27 27 C26.67 27.66 26.34 28.32 26 29 C24.31129187 27.16776695 22.62384377 25.33440764 20.9375 23.5 C20.43307373 22.95190674 19.92864746 22.40381348 19.40893555 21.83911133 C16.65194935 18.83425659 13.9506129 15.79801916 11.3125 12.6875 C8.33667613 9.22774361 5.03606127 6.32733652 1.50390625 3.4453125 C1.00761719 2.96835938 0.51132812 2.49140625 0 2 C0 1.34 0 0.68 0 0 Z " fill="#205B92" transform="translate(405,86)"/>
<path d="M0 0 C3.69104863 0.59225878 6.56994427 1.62186864 9.87109375 3.36328125 C10.77537109 3.83830078 11.67964844 4.31332031 12.61132812 4.80273438 C13.54396484 5.30095703 14.47660156 5.79917969 15.4375 6.3125 C16.36626953 6.79912109 17.29503906 7.28574219 18.25195312 7.78710938 C23.01475448 10.30580077 27.59118695 12.90131837 32 16 C31.67 16.66 31.34 17.32 31 18 C27.37 16.02 23.74 14.04 20 12 C20 11.34 20 10.68 20 10 C19.33613281 9.90847656 18.67226563 9.81695312 17.98828125 9.72265625 C14.11659955 8.78636721 10.76260551 7.16518257 7.1875 5.4375 C6.49462891 5.10814453 5.80175781 4.77878906 5.08789062 4.43945312 C3.38955052 3.63127749 1.69444231 2.81631623 0 2 C0 1.34 0 0.68 0 0 Z " fill="#235489" transform="translate(378,22)"/>
<path d="M0 0 C0.66 0 1.32 0 2 0 C-1.53016622 9.72181902 -10.41702008 27.20851004 -20 32 C-18.36971041 28.42360557 -16.21635416 25.38271879 -13.9375 22.1875 C-9.93549729 16.5320491 -6.3399466 10.69893927 -2.91967773 4.67456055 C-1.99870363 3.08493114 -1.0057794 1.53737527 0 0 Z " fill="#21568D" transform="translate(480,395)"/>
<path d="M0 0 C4.27218701 3.3296128 7.32267697 6.46122969 10.375 11 C10.74931152 11.55598877 11.12362305 12.11197754 11.50927734 12.68481445 C12.68663915 14.44789027 13.84566928 16.22177183 15 18 C15.59458008 18.90951416 15.59458008 18.90951416 16.20117188 19.83740234 C21.22422345 27.56787047 21.22422345 27.56787047 23 31 C22.67 31.66 22.34 32.32 22 33 C18.90705596 30.33399609 17.30520113 27.12503171 15.375 23.5625 C12.00038379 17.45688818 8.2000611 12.01401499 3.8828125 6.5234375 C2.2892677 4.38769074 1.08073204 2.42311499 0 0 Z " fill="#215990" transform="translate(459,84)"/>
<path d="M0 0 C0.59683594 0.32871094 1.19367188 0.65742188 1.80859375 0.99609375 C10.4904545 5.75628189 19.24286895 10.38017705 28 15 C28 15.66 28 16.32 28 17 C22.49894405 15.43458697 17.82093725 12.85820515 12.875 10.0625 C12.07707031 9.61970703 11.27914062 9.17691406 10.45703125 8.72070312 C3.02067869 4.55560082 3.02067869 4.55560082 0 2 C0 1.34 0 0.68 0 0 Z " fill="#22578E" transform="translate(99,470)"/>
<path d="M0 0 C0.33 0 0.66 0 1 0 C0.61760781 7.02950742 -1.65812128 11.90302463 -5.0625 18 C-5.77116211 19.30517578 -5.77116211 19.30517578 -6.49414062 20.63671875 C-7.65147365 22.76434108 -8.82011443 24.88482759 -10 27 C-10.66 27 -11.32 27 -12 27 C-12 27.99 -12 28.98 -12 30 C-12.66 30 -13.32 30 -14 30 C-12.01098368 24.54902013 -9.14566116 19.57747935 -6.36523438 14.50195312 C-3.81448221 9.76969246 -1.78292329 5.07359199 0 0 Z " fill="#265180" transform="translate(453,358)"/>
<path d="M0 0 C4.18747215 1.39582405 5.19799575 4.34100975 7.25 8 C10.74711576 14.05134284 14.4850366 19.6430177 19 25 C18.67 25.66 18.34 26.32 18 27 C13.76114335 22.42649678 10.21577924 17.54356437 6.75 12.375 C6.09572021 11.40711548 6.09572021 11.40711548 5.42822266 10.41967773 C3.19221825 7.04481449 1.32948219 3.85549834 0 0 Z " fill="#205992" transform="translate(32,399)"/>
<path d="M0 0 C0 0.99 0 1.98 0 3 C-1.64892578 4.41040039 -1.64892578 4.41040039 -3.9453125 5.84765625 C-4.77546875 6.37037109 -5.605625 6.89308594 -6.4609375 7.43164062 C-7.34007812 7.96982422 -8.21921875 8.50800781 -9.125 9.0625 C-9.9809375 9.60455078 -10.836875 10.14660156 -11.71875 10.70507812 C-16.03915151 13.39369722 -20.03255563 15.68892042 -25 17 C-25 16.34 -25 15.68 -25 15 C-23.35 14.67 -21.7 14.34 -20 14 C-20 13.34 -20 12.68 -20 12 C-18.33710938 11.07767578 -18.33710938 11.07767578 -16.640625 10.13671875 C-15.17699811 9.32046529 -13.71346116 8.50405056 -12.25 7.6875 C-11.52039063 7.28337891 -10.79078125 6.87925781 -10.0390625 6.46289062 C-6.51875601 4.49471927 -3.14038579 2.5536295 0 0 Z " fill="#21598F" transform="translate(416,467)"/>
<path d="M0 0 C6.31631828 0.40316925 10.64993984 2.71232131 16 6 C16 6.66 16 7.32 16 8 C10.31497465 6.35433477 5.23318364 3.70967216 0 1 C0 0.67 0 0.34 0 0 Z " fill="#255385" transform="translate(363,60)"/>
<path d="M0 0 C5.28 1.32 10.56 2.64 16 4 C16 4.66 16 5.32 16 6 C10.13190493 5.47606294 5.45126259 4.23891142 0 2 C0 1.34 0 0.68 0 0 Z " fill="#22578E" transform="translate(328,47)"/>
<path d="M0 0 C-3.7559214 3.42931954 -8.23466745 4.56429083 -13 6 C-13 5.34 -13 4.68 -13 4 C-4.738041 -0.59225513 -4.738041 -0.59225513 0 0 Z " fill="#245386" transform="translate(391,484)"/>
<path d="M0 0 C4.455 1.98 4.455 1.98 9 4 C8.67 4.66 8.34 5.32 8 6 C2.25 4.125 2.25 4.125 0 3 C0 2.01 0 1.02 0 0 Z " fill="#216194" transform="translate(140,447)"/>
<path d="M0 0 C1.34173403 0.92543709 2.67320159 1.86577405 4 2.8125 C5.11375 3.59560547 5.11375 3.59560547 6.25 4.39453125 C6.8275 4.92433594 7.405 5.45414062 8 6 C8 6.99 8 7.98 8 9 C4.20620942 7.50958227 2.31656242 5.30937488 0 2 C0 1.34 0 0.68 0 0 Z " fill="#1E5F9B" transform="translate(103,421)"/>
<path d="M0 0 C3.3 0 6.6 0 10 0 C10 0.99 10 1.98 10 3 C6.7 2.34 3.4 1.68 0 1 C0 0.67 0 0.34 0 0 Z " fill="#274F7D" transform="translate(181,504)"/>
<path d="M0 0 C0.66 0.33 1.32 0.66 2 1 C1.0479279 2.00596297 0.08812654 3.00461563 -0.875 4 C-1.40867187 4.556875 -1.94234375 5.11375 -2.4921875 5.6875 C-4 7 -4 7 -6 7 C-4.60667426 3.63279613 -3.0210714 2.0140476 0 0 Z " fill="#2C4870" transform="translate(19,159)"/>
</svg>
